<svg xmlns="http://www.w3.org/2000/svg" version="1.1" xmlns:xlink="http://www.w3.org/1999/xlink" width="579" height="579"><svg version="1.2" xmlns="http://www.w3.org/2000/svg" viewBox="0 0 579 579" width="579" height="579">
	<style>
		.s0 { fill: #17c0e9 } 
	</style>
	<g>
		<path fill-rule="evenodd" class="s0" d="m434.78 40.06c58.93 34.19 99.26 82.84 123.58 143.94-36.05 40.23-70.66 82.29-107.41 121.6-4.9-88.89-11.11-176.76-16.17-265.53z"></path>
		<path fill-rule="evenodd" class="s0" d="m1.95 261.94q1.06-8.49 2.12-16.98c5.03-26.84 11.81-51.44 21.53-72.26 54.88-3.31 109.12-7.45 163.77-11.05-59.21 68.67-117.98 137.92-177.48 206.23-9.05-30.85-12.88-65.76-9.94-105.94z"></path>
		<path fill-rule="evenodd" class="s0" d="m577.46 316.67q-1.07 8.49-2.13 16.98c-5.04 26.84-11.81 51.44-21.53 72.26-55.59 3.07-110.33 7.24-165.53 10.82 59.68-68.06 120.15-138.75 179.67-204.76 8.65 30.65 12.45 65.05 9.52 104.7z"></path>
		<path fill-rule="evenodd" class="s0" d="m130.8 268.54c5.62 90.09 10.66 180.63 15.43 271.39-58.89-34.39-99.71-82.83-124.82-143.5 35.89-43.36 72.87-85.33 109.38-127.89z"></path>
		<path fill-rule="evenodd" class="s0" d="m539.89 431.53q0.59 0.08 1.17 0.15c-35.11 60.46-84.93 102-147.38 127.3-36.73-31.11-73.79-63.6-109.96-95.84-4.93-4.39-9.33-8.58-14.35-13.69 90.65-5.35 180.46-11.8 270.52-17.92z"></path>
		<path fill-rule="evenodd" class="s0" d="m317.06 1.55q8.49 1.06 16.99 2.12c27.71 5.42 53.89 12.03 74.45 23 3.78 53.1 6.48 107.05 10.31 160.11-66.88-59.2-134.93-117.48-200.88-177.4 29.44-7.25 61.87-10.65 99.13-7.83z"></path>
		<path fill-rule="evenodd" class="s0" d="m245.35 574.94c-27.27-5.23-52.66-11.92-73.35-22.27-2.47-54.13-5.8-107.58-9-161.13 67.34 58.84 135.54 117.01 201.54 176.89-30.25 7.78-63.61 11.57-102.2 8.63q-8.5-1.06-16.99-2.12z"></path>
		<path fill-rule="evenodd" class="s0" d="m107.08 64.91q6.78-5.21 13.57-10.42c22.63-15.29 44.89-27.76 66.53-35.48 40.93 36.71 82 72.38 122.97 108.72-90.46 6.15-181.03 13.02-271.43 18.73 15.57-28.13 37.72-55.4 68.36-81.55z"></path>
	</g>
</svg><style>@media (prefers-color-scheme: light) { :root { filter: none; } }
@media (prefers-color-scheme: dark) { :root { filter: none; } }
</style></svg>